PathFileType	4	(X/Y/Z)
DataRate	CameraRate	NumFrames	NumMarkers	Units	OrigDataRate	OrigDataStartFrame	OrigNumFrames	
  100.0	  100.0	    5	     55	     mm	  100.0	      65	    516
Frame#	Time	LASI			RASI			LPSI			RPSI			RTH1			RTH2			RTH3			RLFC			RMFC			LTH1			LTH2			LTH3			LLFC			LMFC			RTB1			RTB2			RTB3			RLMAL			RMMAL			LTB1			LTB2			LTB3			LMMAL			LLMAL			RCAL			RTOE			RMT5			LCAL			LTOE			LMT5			LACR			RACR			CLAV			LASH			LPSH			RASH			RPSH			RUA1			RUA2			RUA3			RLEL			RMEL			LUA1			LUA2			LUA3			LLEL			LMEL			RFAsuperior			RFAradius			RFAulna			LFAsuperior			LFAradius			LFAulna			RHJC			LHJC			
		X1	Y1	Z1	X2	Y2	Z2	X3	Y3	Z3	X4	Y4	Z4	X5	Y5	Z5	X6	Y6	Z6	X7	Y7	Z7	X8	Y8	Z8	X9	Y9	Z9	X10	Y10	Z10	X11	Y11	Z11	X12	Y12	Z12	X13	Y13	Z13	X14	Y14	Z14	X15	Y15	Z15	X16	Y16	Z16	X17	Y17	Z17	X18	Y18	Z18	X19	Y19	Z19	X20	Y20	Z20	X21	Y21	Z21	X22	Y22	Z22	X23	Y23	Z23	X24	Y24	Z24	X25	Y25	Z25	X26	Y26	Z26	X27	Y27	Z27	X28	Y28	Z28	X29	Y29	Z29	X30	Y30	Z30	X31	Y31	Z31	X32	Y32	Z32	X33	Y33	Z33	X34	Y34	Z34	X35	Y35	Z35	X36	Y36	Z36	X37	Y37	Z37	X38	Y38	Z38	X39	Y39	Z39	X40	Y40	Z40	X41	Y41	Z41	X42	Y42	Z42	X43	Y43	Z43	X44	Y44	Z44	X45	Y45	Z45	X46	Y46	Z46	X47	Y47	Z47	X48	Y48	Z48	X49	Y49	Z49	X50	Y50	Z50	X51	Y51	Z51	X52	Y52	Z52	X53	Y53	Z53	X54	Y54	Z54	X55	Y55	Z55	

68	0.68000	539.98740	1030.75582	-383.15799	276.23251	1030.87948	-382.51713	449.70617	1080.18384	-576.26561	368.63965	1077.89892	-577.07923	216.93092	894.94736	-448.87062	233.74621	760.99100	-401.79815	244.31242	654.69306	-489.84508	245.81544	543.19722	-482.32650	373.98680	531.01084	-479.37146	594.06385	911.54891	-462.82490	580.61007	791.62633	-407.76313	567.54039	662.84738	-511.33550	564.44906	548.36721	-507.92246	444.69080	529.22193	-486.74127	289.90644	402.74189	-455.25866	231.29910	312.34070	-511.79500	289.05870	206.94785	-495.48678	246.09186	119.68529	-559.32513	333.37221	120.43055	-540.75378	522.61359	428.04563	-475.50096	581.87862	359.17721	-549.49952	525.52639	224.08771	-505.54327	476.04352	122.80607	-533.82444	558.33673	115.46385	-569.17463	296.00954	79.78257	-635.96823	286.72021	74.39114	-399.29025	197.93030	52.98532	-430.03615	499.63004	80.61263	-638.00911	543.00111	81.22457	-406.35775	618.21036	48.39736	-446.93719	561.71289	1565.89841	-486.88564	263.89748	1551.42801	-513.76700	391.43813	1508.57437	-418.16736	573.76080	1516.21270	-423.97739	582.21317	1520.89204	-561.69414	250.94770	1516.33265	-456.11580	254.76042	1498.13614	-594.68719	157.58613	1519.83923	-556.71201	104.21564	1434.46298	-578.44195	50.30114	1486.63785	-550.41382	-46.18723	1478.15706	-536.03144	-37.24639	1398.11607	-534.66308	675.00819	1541.42393	-524.09445	730.89504	1457.53702	-542.30840	784.91918	1509.80192	-512.07174	872.98067	1508.84937	-489.00248	882.13223	1430.77287	-492.03261	-84.58616	1483.74977	-465.23661	-78.58970	1458.76416	-263.45183	-146.16849	1455.36642	-282.46570	895.36408	1514.96017	-366.56426	855.58222	1470.33312	-222.37222	921.79110	1479.00733	-226.11787	302.88391	959.57590	-450.38926	494.78218	981.48090	-464.43567	
69	0.69000	539.97172	1030.75994	-383.18642	276.19576	1030.86127	-382.53272	449.72512	1080.17640	-576.26927	368.64982	1077.89515	-577.08671	216.98464	894.91149	-448.96036	233.71284	761.00468	-401.82504	244.31832	654.66194	-489.92497	245.80852	543.21690	-482.36952	373.92404	531.00031	-479.37954	594.07184	911.53857	-462.81905	580.60894	791.61941	-407.76292	567.53390	662.83618	-511.34408	564.45179	548.35722	-507.91985	444.69513	529.20370	-486.72781	289.89810	402.71999	-455.29109	231.29737	312.33367	-511.82310	289.02773	206.95336	-495.49883	246.09374	119.68344	-559.33589	333.37738	120.41949	-540.77032	522.61755	428.05770	-475.50012	581.88227	359.17563	-549.49161	525.52349	224.08139	-505.55278	476.07946	122.76670	-533.83215	558.35906	115.46420	-569.18024	295.99356	79.72577	-635.95262	286.74301	74.40413	-399.30248	198.42486	52.76996	-430.43252	499.64113	80.61585	-638.00766	543.01492	81.21514	-406.37716	618.23477	48.37216	-446.92631	561.69986	1565.90741	-486.92444	263.98263	1551.38988	-513.86993	391.47198	1508.56436	-418.18396	573.76087	1516.20951	-423.98115	582.25136	1520.87066	-561.72974	250.76504	1516.26938	-456.62363	254.79945	1498.10405	-594.69664	157.63825	1519.79436	-556.74705	104.24986	1434.38749	-578.41021	50.34289	1486.59711	-550.43032	-46.12470	1478.12373	-536.04770	-37.20901	1398.09291	-534.63045	675.02535	1541.38319	-524.12946	730.90093	1457.48189	-542.31615	784.91792	1509.75720	-512.08403	872.98224	1508.81250	-489.00264	882.12933	1430.72819	-492.02187	-84.52026	1483.71882	-465.24969	-78.45643	1458.78252	-263.48946	-146.08272	1455.38221	-282.42189	895.34263	1514.92437	-366.54268	855.57078	1470.32318	-222.31301	921.75919	1478.98462	-226.10870	302.87380	959.56759	-450.43082	494.77428	981.47655	-464.43530	
70	0.70000	539.96844	1030.76799	-383.17546	276.17365	1030.83748	-382.55970	449.73737	1080.17524	-576.28018	368.65112	1077.89532	-577.09996	217.01674	894.88340	-449.01985	233.69311	761.03687	-401.80127	244.25964	654.65146	-489.95414	245.79739	543.22741	-482.41780	373.86044	531.00520	-479.37822	594.07124	911.53861	-462.82346	580.60348	791.61551	-407.76169	567.53302	662.82836	-511.36272	564.45416	548.34848	-507.92218	444.68829	529.20804	-486.71734	289.89956	402.70506	-455.32785	231.30199	312.31854	-511.85643	289.02443	206.94553	-495.53094	246.09585	119.68180	-559.34341	333.38082	120.40969	-540.78747	522.65254	428.03827	-475.52895	581.88229	359.17800	-549.47253	525.51992	224.08062	-505.55671	476.10197	122.74250	-533.83802	558.37288	115.46634	-569.18589	296.01521	79.72790	-635.97394	286.75447	74.40923	-399.30997	198.51107	52.65069	-430.52911	499.64800	80.61612	-638.01032	543.01426	81.21720	-406.37686	618.23929	48.36694	-446.92433	561.71299	1565.82676	-486.88761	264.06427	1551.36051	-513.96244	391.49321	1508.55566	-418.20226	573.76664	1516.19765	-423.99014	582.27835	1520.84364	-561.76134	250.85389	1516.21695	-456.55458	254.84137	1498.07063	-594.70157	157.67577	1519.70904	-556.79322	104.30764	1434.31401	-578.38281	50.37199	1486.56213	-550.43376	-46.07011	1478.09181	-536.05164	-37.18224	1398.05495	-534.59150	675.03815	1541.34153	-524.16901	730.90158	1457.41192	-542.31483	784.91136	1509.69929	-512.08546	872.97922	1508.77007	-489.00389	882.11898	1430.67694	-491.98993	-84.44538	1483.69865	-465.26583	-78.33810	1458.81271	-263.55760	-146.00848	1455.40276	-282.38514	895.30297	1514.89898	-366.52829	855.57144	1470.30761	-222.23139	921.72642	1478.96969	-226.09575	302.87879	959.54918	-450.45665	494.77841	981.48233	-464.43532	
71	0.71000	539.97063	1030.76943	-383.13814	276.15858	1030.82051	-382.58896	449.74063	1080.18280	-576.28982	368.64651	1077.90459	-577.10785	217.02206	894.86938	-449.04233	233.68828	761.04645	-401.78764	244.23617	654.64874	-489.96450	245.78498	543.22153	-482.45152	373.83043	531.01270	-479.38444	594.05837	911.54788	-462.83676	580.58702	791.61600	-407.75915	567.53837	662.82685	-511.37723	564.45545	548.34494	-507.92854	444.67618	529.22520	-486.72649	289.90062	402.70628	-455.35451	231.30590	312.30669	-511.88819	289.04479	206.92897	-495.57231	246.10119	119.67618	-559.34934	333.38141	120.40653	-540.79607	522.67736	428.01543	-475.55840	581.88081	359.17994	-549.45330	525.52034	224.08104	-505.55791	476.10366	122.74521	-533.84665	558.37152	115.46620	-569.18488	296.05077	79.75831	-636.00758	286.75336	74.40939	-399.31617	198.56112	52.67489	-430.51406	499.64914	80.61572	-638.01304	543.01136	81.22141	-406.37438	618.22037	48.38812	-446.92855	561.73371	1565.71825	-486.80472	264.14467	1551.32521	-514.04320	391.51248	1508.55383	-418.21475	573.77660	1516.17858	-423.99784	582.28609	1520.81908	-561.77670	250.99302	1516.23451	-456.31862	254.87679	1498.04898	-594.70941	157.67015	1519.58378	-556.81161	104.37056	1434.25305	-578.37778	50.39865	1486.53610	-550.42945	-46.03287	1478.06848	-536.02890	-37.14824	1398.01600	-534.56683	675.04655	1541.30493	-524.19587	730.89650	1457.34236	-542.30296	784.90502	1509.63739	-512.07634	872.97267	1508.72324	-488.99889	882.10247	1430.62359	-491.94218	-84.38995	1483.68602	-465.25875	-78.25893	1458.82823	-263.59674	-145.93482	1455.40245	-282.36559	895.26026	1514.86998	-366.51909	855.56114	1470.29065	-222.18391	921.69907	1478.96133	-226.07554	302.88458	959.53442	-450.46855	494.78273	981.49110	-464.43459	
72	0.72000	539.97175	1030.75377	-383.07743	276.14538	1030.81540	-382.60804	449.73261	1080.19463	-576.29155	368.63716	1077.91888	-577.10482	217.03429	894.85504	-449.04819	233.69114	761.01348	-401.82670	244.28109	654.64774	-489.97670	245.77650	543.20097	-482.45313	373.78884	531.00252	-479.37039	594.03795	911.55653	-462.85576	580.56512	791.61734	-407.75914	567.54414	662.82674	-511.38338	564.45434	548.34633	-507.93400	444.66858	529.23681	-486.75182	289.89754	402.70301	-455.36532	231.29741	312.30593	-511.90212	289.07090	206.90916	-495.60383	246.10743	119.66904	-559.35601	333.37868	120.40844	-540.79762	522.68059	428.00977	-475.56917	581.88287	359.17656	-549.44663	525.52451	224.07748	-505.56291	476.09580	122.76180	-533.85694	558.35873	115.46107	-569.17696	296.06316	79.77205	-636.01843	286.75501	74.41541	-399.32934	198.65614	52.75673	-430.51729	499.64558	80.61629	-638.01200	543.01174	81.22274	-406.37458	618.19491	48.41782	-446.92994	561.75380	1565.66918	-486.75917	264.21617	1551.28536	-514.10081	391.54241	1508.55842	-418.21377	573.78823	1516.15481	-423.99814	582.27873	1520.80027	-561.77620	251.07372	1516.28868	-456.23427	254.90809	1498.04027	-594.72689	157.63068	1519.45238	-556.78779	104.41445	1434.20581	-578.38470	50.43494	1486.51925	-550.42871	-46.01438	1478.05328	-535.98741	-37.10647	1397.98795	-534.56004	675.05584	1541.27316	-524.20124	730.88952	1457.28166	-542.28528	784.90167	1509.57512	-512.06110	872.96784	1508.66385	-488.98650	882.08537	1430.56586	-491.89462	-84.35756	1483.67154	-465.23636	-78.23040	1458.80572	-263.55968	-145.88729	1455.38467	-282.32556	895.23785	1514.81102	-366.49698	855.52428	1470.27316	-222.19635	921.67502	1478.94958	-226.04515	302.88059	959.52807	-450.46175	494.77831	981.49305	-464.42684	
